PathFileType	3	(X/Y/Z)	C:\Users\koon_\Desktop\
DataRate	CameraRate	NumFrames	NumMarkers	Units	OrigDataRate	OrigDataStartFrame	OrigNumFrames
100.0	100.0	4	27	mm	100.0	338	2700	
Frame#	Time	get:LFHD			get:RFHD			get:LBHD			get:RBHD			get:C7			get:T10			get:CLAV			get:STRN			get:RBAK			get:LSHO			get:LUPA			get:LELB			get:LFRA			get:LWRA			get:LWRB			get:LFIN			get:RSHO			get:RUPA			get:RELB			get:RFRA			get:RWRA			get:RWRB			get:RFIN			get:LASI			get:RASI			get:LPSI			get:RPSI			
		X1	Y1	Z1	X2	Y2	Z2	X3	Y3	Z3	X4	Y4	Z4	X5	Y5	Z5	X6	Y6	Z6	X7	Y7	Z7	X8	Y8	Z8	X9	Y9	Z9	X10	Y10	Z10	X11	Y11	Z11	X12	Y12	Z12	X13	Y13	Z13	X14	Y14	Z14	X15	Y15	Z15	X16	Y16	Z16	X17	Y17	Z17	X18	Y18	Z18	X19	Y19	Z19	X20	Y20	Z20	X21	Y21	Z21	X22	Y22	Z22	X23	Y23	Z23	X24	Y24	Z24	X25	Y25	Z25	X26	Y26	Z26	X27	Y27	Z27	
338	3.37	80.631119	1558.2153	-46.395233	-60.671646	1554.854	-42.280857	52.140759	1556.79	-206.38383	-76.951439	1528.9513	-206.08716	47.315491	1328.9226	-219.22716	2.0055439	1129.2888	-230.03107	14.028375	1285.2253	-16.783833	1.9565935	1089.6465	46.475327	-45.30571	1264.5548	-248.54318	159.90161	1329.1035	-123.75966	239.95203	1189.9132	-97.411652	261.49219	998.35583	-106.30674	273.50565	868.70575	-39.543072	253.65514	786.74701	-23.314697	290.00647	793.68317	-100.45388	317.47885	718.78571	-33.448635	-43.527252	1373.0597	-169.99425	-122.44804	1453.1195	-216.14395	-231.89787	1526.1644	-236.5341	-184.3532	1609.2639	-241.07018	-240.55733	1766.1049	-231.43613	-309.3623	1734.8535	-259.42853	-272.99118	1833.3967	-284.25601	129.27835	889.64758	9.5772667	-133.98468	880.97675	-5.2090726	50.908707	955.38019	-205.84322	-38.720341	953.51923	-212.79063
339	3.38	81.541107	1558.5088	-46.384377	-59.811924	1555.235	-42.255692	52.974812	1556.7014	-206.3959	-76.168442	1528.9319	-206.01924	47.623634	1328.875	-218.29565	2.8997984	1129.2847	-229.74745	14.553945	1285.0685	-16.312002	2.6567781	1089.4255	46.640327	-44.562946	1264.5146	-247.90022	160.47681	1329.2782	-123.26662	240.59535	1190.0626	-96.920555	262.24051	998.51868	-105.55529	274.0795	868.91162	-38.607227	254.16219	786.99316	-22.228434	290.88837	793.86151	-99.239822	318.08966	719.08643	-32.07589	-44.256985	1372.9327	-168.8078	-126.39632	1452.698	-215.63948	-237.73688	1521.9269	-238.3009	-194.37257	1606.9329	-241.61804	-259.54834	1760.5594	-232.59261	-325.92401	1725.5878	-261.85229	-294.70914	1825.8959	-286.23047	129.99814	889.56464	9.5229025	-133.28998	880.91833	-4.9461284	51.571518	955.38544	-205.77049	-38.03627	953.54846	-212.70567
340	3.39	82.4282	1558.7684	-46.416737	-58.903027	1555.6298	-42.243206	53.783035	1556.6078	-206.42905	-75.355667	1528.9515	-205.94261	48.200569	1329.229	-217.97261	3.7990696	1129.3005	-229.5388	15.134331	1284.8943	-15.764056	3.4592481	1089.2451	46.780781	-43.840805	1264.4591	-247.25905	161.07289	1329.4099	-122.80574	241.25122	1190.2129	-96.374298	263.05893	998.67694	-104.85193	274.68863	869.18823	-37.661789	254.77359	787.28143	-21.199072	291.75781	794.0423	-98.079544	318.75552	719.39191	-30.678856	-44.828197	1372.8303	-167.72845	-130.54637	1452.0864	-215.00044	-243.91801	1517.0511	-239.41966	-204.77751	1604.1594	-241.97392	-278.71494	1753.9487	-233.78795	-342.50262	1715.3121	-264.15936	-316.59332	1817.254	-288.02255	130.72789	889.48547	9.3255262	-132.56358	880.86774	-4.8642588	52.230713	955.37	-205.79951	-37.437725	953.56915	-212.62009
341	3.4	83.280495	1559.0231	-46.414707	-58.061684	1555.9529	-42.148224	54.59124	1556.5389	-206.41388	-74.534424	1528.9132	-205.74693	48.514935	1329.2391	-217.13982	4.7085752	1129.2925	-229.30299	15.732193	1284.731	-15.225403	4.2889991	1089.0505	46.908035	-43.096577	1264.3702	-246.63333	161.64557	1329.556	-122.34089	241.88022	1190.3801	-95.941772	263.8782	998.80695	-104.19034	275.36905	869.47095	-36.606777	255.44536	787.58618	-20.13238	292.56912	794.18927	-96.903275	319.45789	719.74109	-29.344715	-45.421482	1372.6976	-166.70573	-134.9361	1451.3512	-214.42178	-250.2654	1511.8574	-240.47833	-215.54202	1600.7953	-242.25626	-298.09348	1746.2202	-234.89064	-358.92804	1704.1141	-266.48801	-338.43848	1807.5006	-289.64178	131.54095	889.41803	9.1082268	-131.79324	880.83887	-4.7029152	52.852184	955.37848	-205.88026	-36.830818	953.56268	-212.52002
